<svg xmlns="http://www.w3.org/2000/svg" width="52" height="52" viewBox="0 0 52 52">
  <g id="Watch" transform="translate(64)">
    <path id="Ellipse_21" data-name="Ellipse 21" d="M26,4a22.007,22.007,0,0,0-8.562,42.273A22.007,22.007,0,0,0,34.562,5.727,21.859,21.859,0,0,0,26,4m0-4A26,26,0,1,1,0,26,26,26,0,0,1,26,0Z" transform="translate(-64)" fill="#fff"/>
    <path id="Path_1200" data-name="Path 1200" d="M15.785,17.455H0a2,2,0,0,1-2-2V0A2,2,0,0,1,0-2,2,2,0,0,1,2,0V13.455H15.785a2,2,0,0,1,0,4Z" transform="translate(-38 10.5)" fill="#fff"/>
  </g>
</svg>
