<svg xmlns="http://www.w3.org/2000/svg" width="44" height="44" viewBox="0 0 44 44">
  <g id="settings-2" transform="translate(0.034 0.034)">
    <g id="settings-2-2" data-name="settings-2">
      <rect id="Rectangle_3764" data-name="Rectangle 3764" width="44" height="44" transform="translate(43.966 43.966) rotate(180)" fill="#fff" opacity="0"/>
      <circle id="Ellipse_20" data-name="Ellipse 20" cx="2.746" cy="2.746" r="2.746" transform="translate(19.22 19.22)" fill="#fff"/>
      <path id="Path_1181" data-name="Path 1181" d="M35.535,15.491h-2c-.256,0-.439-.2-.549-.476a.622.622,0,0,1,0-.677l1.483-1.355a2.984,2.984,0,0,0,.915-2.16,3.057,3.057,0,0,0-.915-2.178L32.02,6.137a3.057,3.057,0,0,0-4.338,0L26.272,7.491a.7.7,0,0,1-.751,0,.622.622,0,0,1-.4-.531V5.075A3.075,3.075,0,0,0,22.135,2H18.584a3.094,3.094,0,0,0-3.094,3.075v2c0,.256-.2.439-.476.549a.622.622,0,0,1-.677,0L12.983,6.137A3.148,3.148,0,0,0,10.8,5.222a3.02,3.02,0,0,0-2.16.915L6.137,8.59a3.057,3.057,0,0,0,0,4.393l1.355,1.355a.7.7,0,0,1,0,.751.622.622,0,0,1-.531.4H5.075A3.075,3.075,0,0,0,2,18.566v3.46a3.094,3.094,0,0,0,3.075,3.094h2c.256,0,.439.2.549.476a.622.622,0,0,1,0,.677L6.137,27.627a3.148,3.148,0,0,0-.915,2.178,3.039,3.039,0,0,0,.915,2.178L8.59,34.473a3.057,3.057,0,0,0,4.338,0l1.409-1.355a.7.7,0,0,1,.751,0,.622.622,0,0,1,.4.531v2a3.075,3.075,0,0,0,3.075,2.965h3.46a3.094,3.094,0,0,0,3.094-3.075v-2c0-.256.2-.439.476-.549a.622.622,0,0,1,.677,0L27.664,34.4a3.148,3.148,0,0,0,2.178.915A3.02,3.02,0,0,0,32,34.4l2.453-2.453a3.057,3.057,0,0,0,0-4.338l-1.336-1.336a.755.755,0,0,1,.531-1.08h2a3.075,3.075,0,0,0,2.965-3.057V18.584a3.094,3.094,0,0,0-3.075-3.094ZM20.3,26.712A6.407,6.407,0,1,1,26.712,20.3,6.407,6.407,0,0,1,20.3,26.712Z" transform="translate(1.661 1.661)" fill="#fff"/>
    </g>
  </g>
</svg>
