<svg xmlns="http://www.w3.org/2000/svg" width="48.294" height="30.733" viewBox="0 0 48.294 30.733">
  <path id="Icon_material-people" data-name="Icon material-people" d="M34.428,20.671a6.586,6.586,0,1,0-6.586-6.586A6.558,6.558,0,0,0,34.428,20.671Zm-17.562,0a6.586,6.586,0,1,0-6.586-6.586A6.558,6.558,0,0,0,16.866,20.671Zm0,4.39C11.752,25.062,1.5,27.63,1.5,32.745v5.488H32.233V32.745C32.233,27.63,21.981,25.062,16.866,25.062Zm17.562,0c-.637,0-1.361.044-2.129.11,2.546,1.844,4.325,4.325,4.325,7.573v5.488H49.795V32.745C49.795,27.63,39.543,25.062,34.428,25.062Z" transform="translate(-1.5 -7.5)" fill="#fff"/>
</svg>
